<?xml version="1.0" encoding="utf-8"?>
<!-- Generator: Adobe Illustrator 21.1.0, SVG Export Plug-In . SVG Version: 6.00 Build 0)  -->
<svg version="1.1" xmlns="http://www.w3.org/2000/svg" xmlns:xlink="http://www.w3.org/1999/xlink" x="0px" y="0px"
	 viewBox="0 0 1102 824.3" style="enable-background:new 0 0 1102 824.3;" xml:space="preserve">
<style type="text/css">
	.st0{fill:none;}
	.st1{fill:#A067A0;}
	.st2{fill:#EFA3ED;}
	.st3{fill:#EEDAEF;}
	.st4{fill:url(#SVGID_1_);}
	.st5{fill:url(#SVGID_2_);}
	.st6{fill:#D1B6D3;}
	.st7{fill:url(#SVGID_3_);}
	.st8{fill:url(#SVGID_4_);}
	.st9{fill:url(#SVGID_5_);}
	.st10{fill:url(#SVGID_6_);}
	.st11{fill:url(#SVGID_7_);}
	.st12{fill:url(#SVGID_8_);}
	.st13{fill:none;stroke:#EEDAEF;stroke-miterlimit:10;}
</style>
<g id="Default">
</g>
<g id="Make2D::visible::lines">
	<line class="st0" x1="-9.4" y1="356.4" x2="36.1" y2="412.3"/>
	<path class="st0" d="M36.1,412.3c25.5,28.9,18,73.9-15.4,93"/>
	<path class="st0" d="M-40,504.9c-7.9-4.6-14.1-10.3-19.3-17.8"/>
	<path class="st0" d="M20.7,505.2c-18.8,10.8-42,10.7-60.8-0.3"/>
	<line class="st0" x1="-55.1" y1="412.4" x2="-9.4" y2="356.4"/>
	<g id="XMLID_1_">
		<g>
			<polygon class="st1" points="-398.7,483.9 -398.7,557.5 -413.7,560 -413.7,486.4 			"/>
			<polygon class="st2" points="-413.7,453.7 -398.7,483.9 -413.7,486.4 			"/>
			<polygon class="st1" points="-418.6,487.2 -418.6,560.8 -629.2,595.5 -629.2,583.2 -603.6,579 -603.6,566.7 -578,562.5 
				-578,550.3 -552.4,546 -552.4,533.8 -526.8,529.6 -526.8,517.3 -501.2,513.1 -501.2,500.8 -475.5,496.6 			"/>
			<polygon class="st2" points="-418.6,443.8 -418.6,487.2 -475.5,496.6 -501.2,500.8 -527.4,447.8 -501.8,443.5 -425,430.9 			"/>
			<polygon class="st3" points="-501.2,500.8 -501.2,513.1 -527.4,460 -527.4,447.8 			"/>
			<polygon class="st2" points="-527.4,460 -501.2,513.1 -526.8,517.3 -553,464.2 			"/>
			<polygon class="st3" points="-526.8,517.3 -526.8,529.6 -553,476.5 -553,464.2 			"/>
			<polygon class="st2" points="-553,476.5 -526.8,529.6 -552.4,533.8 -578.6,480.7 			"/>
			<polygon class="st3" points="-552.4,533.8 -552.4,546 -578.6,493 -578.6,480.7 			"/>
			<polygon class="st2" points="-578.6,493 -552.4,546 -578,550.3 -604.2,497.2 			"/>
			<polygon class="st3" points="-578,550.3 -578,562.5 -604.2,509.5 -604.2,497.2 			"/>
			<polygon class="st2" points="-604.2,509.5 -578,562.5 -603.6,566.7 -629.8,513.7 			"/>
			<polygon class="st3" points="-603.6,566.7 -603.6,579 -629.8,525.9 -629.8,513.7 			"/>
			<polygon class="st2" points="-629.8,525.9 -603.6,579 -629.2,583.2 -655.4,530.2 			"/>
			<polygon class="st3" points="-629.2,583.2 -629.2,595.5 -655.4,542.4 -655.4,530.2 			"/>
			<polygon class="st2" points="-655.4,542.4 -629.2,595.5 -654.8,599.7 -681,546.6 			"/>
			<path class="st3" d="M-640.4,412.3c25.5,28.9,18,73.9-15.4,93c-18.8,10.8-42,10.7-60.8-0.3c-7.9-4.6-14.1-10.3-19.3-17.9v-69.3
				c1.3-1.8,2.6-3.6,4.1-5.2l0.2-0.2l9-11l24.1-29.6l5.9-7.2l6.8-8.3L-640.4,412.3z"/>
			<polygon class="st3" points="-681,546.6 -654.8,599.7 -660.4,600.6 -681,558.9 			"/>
			<polygon class="st2" points="-681,558.9 -660.4,600.6 -683.4,604.4 -683.4,610.1 -706.6,563.1 			"/>
			<polygon class="st1" points="-681,546.6 -681,558.9 -706.6,563.1 -706.6,575.4 -732.2,579.6 -732.2,591.9 -735.9,592.5 
				-735.9,555.7 			"/>
			<polygon class="st1" points="-683.4,628.9 -683.4,714.8 -735.9,723.4 -735.9,662.1 -731.6,661.4 -731.6,649.1 -706,644.9 
				-706,632.7 			"/>
			<polygon class="st2" points="-683.4,622.3 -683.4,628.9 -706,632.7 -732.2,579.6 -706.6,575.4 			"/>
			<polygon class="st3" points="-683.4,610.1 -683.4,622.3 -706.6,575.4 -706.6,563.1 			"/>
			<polygon class="st1" points="-692.7,218.1 -692.7,364.6 -698.5,371.8 -698.5,219.8 			"/>
			<path class="st2" d="M-766,231.3c-2-5.4,0.3-10.1,5.9-15.3c6.5-6,13.7-8.2,22-9.6c13.5-2.2,35.3-0.3,45.3,11.7l-5.9,1.6
				c-8.4-10-26.5-11.6-37.7-9.7c-6.9,1.1-12.9,3-18.3,7.9c-6.4,5.9-7.6,11-1.7,17.9c3.7,4.4,4.7,8.7,3.9,12.5
				c-1.5,7.1-9.3,12.8-17.5,15.9c-12.7,4.8-24.1,5.1-37.2,1.6l-2.6-5.2c11.6,4.8,21.7,4.9,33.6,1.3c3.5-1.1,7.1-2.7,10.1-4.8
				c6.8-4.7,10.6-11.6,3.8-19.7C-764,235.3-765.3,233.2-766,231.3z"/>
			<linearGradient id="SVGID_1_" gradientUnits="userSpaceOnUse" x1="-760.0658" y1="305.9759" x2="-698.545" y2="305.9759">
				<stop  offset="0" style="stop-color:#A067A0"/>
				<stop  offset="0.4814" style="stop-color:#D1B6D3"/>
				<stop  offset="0.8112" style="stop-color:#FFFFFF"/>
				<stop  offset="0.8693" style="stop-color:#FDFCFD"/>
				<stop  offset="0.909" style="stop-color:#F8F3F8"/>
				<stop  offset="0.9432" style="stop-color:#EEE4EF"/>
				<stop  offset="0.9741" style="stop-color:#E0CEE2"/>
				<stop  offset="1" style="stop-color:#D1B6D3"/>
			</linearGradient>
			<path class="st4" d="M-698.5,219.8v152.1l-24.1,29.6c-5.8-0.5-11.2-0.2-16.9,1.2l-12.9-26.1V248.4c0.8-3.8-0.1-8-3.9-12.5
				c-5.8-6.9-4.7-12.1,1.7-17.9c5.4-5,11.4-6.8,18.3-7.9C-725,208.2-706.9,209.8-698.5,219.8z"/>
			<polygon class="st3" points="-706,632.7 -706,644.9 -732.2,591.9 -732.2,579.6 			"/>
			<polygon class="st2" points="-732.2,591.9 -706,644.9 -731.6,649.1 -735.9,640.5 -735.9,592.5 			"/>
			<polygon class="st3" points="-731.6,649.1 -731.6,661.4 -735.9,652.7 -735.9,640.5 			"/>
			<polygon class="st2" points="-735.9,652.7 -731.6,661.4 -735.9,662.1 			"/>
			<polygon class="st1" points="-735.9,723.4 -735.9,809.5 -758.7,813.3 -758.7,413.8 -735.9,410 -735.9,417.8 -735.9,487.1 
				-735.9,555.7 -735.9,592.5 -735.9,640.5 -735.9,652.7 -735.9,662.1 			"/>
			<polygon class="st2" points="-739.5,402.6 -735.9,410 -758.7,413.8 -956.7,13.3 -933.8,9.5 -809.7,260.7 -807.1,265.9 
				-752.4,376.5 			"/>
			<linearGradient id="SVGID_2_" gradientUnits="userSpaceOnUse" x1="-807.105" y1="312.4359" x2="-752.425" y2="312.4359">
				<stop  offset="0" style="stop-color:#A067A0"/>
				<stop  offset="0.4814" style="stop-color:#D1B6D3"/>
				<stop  offset="0.8112" style="stop-color:#FFFFFF"/>
				<stop  offset="0.8693" style="stop-color:#FDFCFD"/>
				<stop  offset="0.909" style="stop-color:#F8F3F8"/>
				<stop  offset="0.9432" style="stop-color:#EEE4EF"/>
				<stop  offset="0.9741" style="stop-color:#E0CEE2"/>
				<stop  offset="1" style="stop-color:#D1B6D3"/>
			</linearGradient>
			<path class="st5" d="M-752.4,248.4v128.1l-54.7-110.6c13.1,3.5,24.5,3.2,37.2-1.6C-761.8,261.2-754,255.5-752.4,248.4z"/>
			<path class="st3" d="M-758.7,413.8v399.5l-39.3-79.6v-36.8v-33.5v-12.3v-23.9v-78.4l-8.2-16.6l-18-36.5v148l-10.3,1.7v12.3
				l-0.9,0.2l-21.5-43.4V504.2l-22.7-45.9V285.2c1.6-4.2,0.5-8.5-3.9-13.7c-1.9-2.3-3.1-4.5-3.2-7.6l-4.1-8.2
				c-2.7,4.1-3.4,7.5-2.5,10.9v26.2l0,0c-4.9,3.7-10.2,5.2-16.2,6.2c-11.2,1.8-29.3,0.3-37.7-9.7c-2.6-3-5.9-5.5-9.6-7.3V13.3
				L-758.7,413.8z"/>
			<path class="st1" d="M-762.1,237.5c6.8,8.1,3,15.1-3.8,19.7l0,0v-25.9C-765.3,233.2-764,235.3-762.1,237.5z"/>
			<polygon class="st1" points="-798.1,696.9 -798.1,733.7 -859.6,743.8 -859.6,731.5 -834,727.3 -834,715.1 -808.4,710.8 
				-808.4,698.6 			"/>
			<polygon class="st2" points="-798.1,663.4 -798.1,696.9 -808.4,698.6 -834.6,645.5 -824.3,643.8 -809,641.3 			"/>
			<polygon class="st3" points="-798.1,651.1 -798.1,663.4 -809,641.3 -809,629 			"/>
			<polygon class="st2" points="-798.1,627.2 -798.1,651.1 -809,629 -806.3,628.6 			"/>
			<polygon class="st6" points="-798.1,548.9 -798.1,627.2 -806.3,628.6 -806.3,532.3 			"/>
			<polygon class="st1" points="-824.3,495.8 -806.3,532.3 -806.3,628.6 -809,629 -809,641.3 -824.3,643.8 			"/>
			<polygon class="st3" points="-808.4,698.6 -808.4,710.8 -834.6,657.8 -834.6,645.5 			"/>
			<polygon class="st2" points="-834.6,657.8 -808.4,710.8 -834,715.1 -860.2,662 -835.5,657.9 			"/>
			<polygon class="st3" points="-834,715.1 -834,727.3 -860.2,674.3 -860.2,662 			"/>
			<polygon class="st2" points="-860.2,674.3 -834,727.3 -859.6,731.5 -885.8,678.5 			"/>
			<polygon class="st6" points="-857,504.2 -857,614.5 -887.5,596.9 -887.5,486.6 			"/>
			<path class="st2" d="M-879.6,458.3l22.7,45.9l-30.5-17.6v0c4.8-3.6,7.9-7,7.9-13.5v0V458.3z"/>
			<polygon class="st3" points="-859.6,731.5 -859.6,743.8 -885.8,690.7 -885.8,678.5 			"/>
			<path class="st2" d="M-1274.9,373.3L-1274.9,373.3c-1.9-5.4,0.4-10,5.9-15.1c6.5-6,13.7-8.2,22-9.5c13.5-2.2,35.3-0.3,45.3,11.7
				c8.4,10,26.5,11.6,37.7,9.7c6.1-1,11.4-2.5,16.2-6.2c0.7-0.5,1.4-1.1,2.1-1.8c6.4-5.9,7.6-11,1.7-17.9c-1.9-2.2-3.1-4.3-3.8-6.3
				v-1.6l-0.5-0.3c-0.9-4.7,1.4-8.9,6.4-13.5c6.5-6,13.7-8.2,22-9.6c13.5-2.2,35.3-0.3,45.3,11.7c8.4,10,26.5,11.6,37.7,9.7
				c6.1-1,11.3-2.5,16.2-6.2c0.7-0.5,1.4-1.1,2.1-1.8c6.4-5.9,7.5-11,1.7-17.9c-1.9-2.2-3.1-4.3-3.9-6.3c-2-5.4,0.3-10.1,5.9-15.3
				c6.5-6,13.7-8.2,22-9.5c10.1-1.7,24.8-1,35.8,4.4c3.7,1.8,7,4.2,9.6,7.3c8.4,10,26.5,11.6,37.7,9.7c6.1-1,11.4-2.5,16.2-6.2
				c0.7-0.5,1.4-1.1,2.1-1.8c6.4-5.9,7.5-11,1.7-17.9c-1.9-2.3-3.2-4.4-3.9-6.6c-1-3.4-0.2-6.8,2.5-10.9l4.1,8.2
				c0.1,3.1,1.3,5.3,3.2,7.6c4.3,5.2,5.5,9.5,3.9,13.7c-1,2.6-3,5.2-5.9,7.9c-6.5,6-13.7,8.2-22,9.6c-13.5,2.2-35.3,0.3-45.4-11.7
				c-8.4-10-26.5-11.6-37.7-9.7c-7,1.1-12.9,3-18.3,7.9c-6.4,5.9-7.5,11-1.7,17.9c4.3,5.2,5.5,9.5,3.8,13.7c-1,2.6-3,5.1-5.9,7.8
				c-6.5,6-13.7,8.2-22,9.5c-13.5,2.2-35.3,0.3-45.3-11.7c-8.4-10-26.5-11.6-37.7-9.7c-7,1.1-12.9,3-18.3,7.9
				c-6.4,5.9-7.5,11-1.7,17.9c4.3,5.2,5.5,9.5,3.8,13.7c-1,2.6-3,5.1-5.9,7.8c-6.5,6-13.7,8.2-22,9.6c-13.5,2.2-35.3,0.3-45.4-11.7
				c-8.4-10-26.5-11.6-37.7-9.7c-7,1.1-12.9,3-18.3,7.9c-6.4,5.9-7.6,11-1.7,17.9c4.3,5.2,5.5,9.5,3.9,13.7c-1,2.6-3,5.2-5.9,7.8
				c-6.5,6-13.7,8.2-22,9.5c-13.5,2.2-35.3,0.3-45.4-11.7c-8.4-10-26.5-11.6-37.7-9.7c-6.9,1.2-12.9,3-18.3,7.9
				c-6.4,5.9-7.6,11-1.7,17.9c4.3,5.2,5.5,9.5,3.9,13.7c-1,2.6-3,5.2-5.9,7.9c-6.5,6-13.7,8.2-22,9.5c-13.5,2.2-35.3,0.3-45.4-11.7
				l5.9-1.6c8.4,10,26.5,11.6,37.7,9.7c6.1-1,11.3-2.5,16.2-6.2c0.7-0.5,1.4-1.1,2.1-1.8c6.4-5.9,7.6-11,1.7-17.9
				c-1.9-2.2-3.1-4.3-3.9-6.3c-2-5.4,0.3-10.1,5.9-15.3c6.5-6,13.7-8.2,22-9.6c13.5-2.2,35.3-0.3,45.4,11.7
				c8.4,10,26.5,11.6,37.7,9.7c6.1-1,11.3-2.5,16.2-6.2c0.7-0.5,1.4-1.1,2.1-1.8c6.4-5.9,7.5-11,1.7-17.9c-1.9-2.2-3.1-4.3-3.9-6.3
				V373.3z"/>
			<linearGradient id="SVGID_3_" gradientUnits="userSpaceOnUse" x1="-1014.4891" y1="443.0851" x2="-879.635" y2="443.0851">
				<stop  offset="0" style="stop-color:#A067A0"/>
				<stop  offset="0.4814" style="stop-color:#D1B6D3"/>
				<stop  offset="0.8112" style="stop-color:#FFFFFF"/>
				<stop  offset="0.8693" style="stop-color:#FDFCFD"/>
				<stop  offset="0.909" style="stop-color:#F8F3F8"/>
				<stop  offset="0.9432" style="stop-color:#EEE4EF"/>
				<stop  offset="0.9741" style="stop-color:#E0CEE2"/>
				<stop  offset="1" style="stop-color:#D1B6D3"/>
			</linearGradient>
			<path class="st7" d="M-879.6,458.3V473v0c0,6.5-3.1,9.9-7.9,13.5v0v110.3c-15.9,12-51.7,12.6-65.5-3.8
				c-11.4-13.6-40.6-13-53.9-3.5V320.7c1.6-4.2,0.5-8.6-3.8-13.7c-5.8-6.9-4.7-12.1,1.7-17.9c5.4-5,11.4-6.8,18.3-7.9
				c11.2-1.9,29.3-0.3,37.7,9.7c10.1,12,31.9,13.9,45.4,11.7c8.4-1.4,15.5-3.6,22-9.6c2.9-2.7,5-5.3,5.9-7.9V458.3z"/>
			<path class="st1" d="M-889.4,273.1c5.8,7,4.7,12.1-1.7,17.9c-0.7,0.6-1.4,1.2-2.1,1.8l0,0v-26.2
				C-892.6,268.7-891.3,270.8-889.4,273.1z"/>
			<linearGradient id="SVGID_4_" gradientUnits="userSpaceOnUse" x1="-1141.6991" y1="473.0259" x2="-1006.855" y2="473.0259">
				<stop  offset="0" style="stop-color:#A067A0"/>
				<stop  offset="0.4814" style="stop-color:#D1B6D3"/>
				<stop  offset="0.8112" style="stop-color:#FFFFFF"/>
				<stop  offset="0.8693" style="stop-color:#FDFCFD"/>
				<stop  offset="0.909" style="stop-color:#F8F3F8"/>
				<stop  offset="0.9432" style="stop-color:#EEE4EF"/>
				<stop  offset="0.9741" style="stop-color:#E0CEE2"/>
				<stop  offset="1" style="stop-color:#D1B6D3"/>
			</linearGradient>
			<path class="st8" d="M-1006.9,589.6V619c0,4.8-1.9,7.9-5.1,11.1c0.3-18.8-3.8-37.8-12.9-55.7c-11.6-22.9-29.5-40.5-50.6-51.7
				c0,0-0.1,0-0.1,0c-18.7-10.1-37-14.6-58-14c0,0,0,0,0,0c-0.2,0-0.4,0-0.6,0V356.3c1.6-4.2,0.5-8.6-3.8-13.7
				c-5.8-6.9-4.7-12.1,1.7-17.9c5.4-5,11.4-6.8,18.3-7.9c11.2-1.9,29.3-0.3,37.7,9.7c10.1,12,31.9,13.9,45.3,11.7
				c8.4-1.4,15.5-3.6,22-9.5c2.9-2.7,4.9-5.2,5.9-7.8V589.6z"/>
			<radialGradient id="SVGID_5_" cx="-1176.9596" cy="589.1656" r="162.8977" gradientUnits="userSpaceOnUse">
				<stop  offset="0" style="stop-color:#FFFFFF"/>
				<stop  offset="7.870587e-02" style="stop-color:#F9F6F9"/>
				<stop  offset="0.209" style="stop-color:#E9DDEA"/>
				<stop  offset="0.3656" style="stop-color:#D1B6D3"/>
				<stop  offset="0.4902" style="stop-color:#C5A3C7"/>
				<stop  offset="0.7413" style="stop-color:#A773A8"/>
				<stop  offset="0.7974" style="stop-color:#A067A0"/>
				<stop  offset="0.8672" style="stop-color:#9A629B"/>
				<stop  offset="0.889" style="stop-color:#975F98"/>
				<stop  offset="1" style="stop-color:#804B82"/>
			</radialGradient>
			<path class="st9" d="M-1248.4,655.1c-12.1-52.5,12.5-108.4,62.7-133.7c16.6-8.4,34.2-12.5,51.6-12.9v0c0.2,0,0.4,0,0.6,0
				c0,0,0,0,0,0c20.3-0.3,40.2,4.6,58,14c0,0,0.1,0,0.1,0c21.1,11.2,39,28.8,50.6,51.7c9,17.9,13.2,37,12.9,55.7
				c-0.7,43.1-24.6,84.3-65.8,105.1c-59,29.8-131,6.1-160.8-52.9C-1243,673.4-1246.3,664.4-1248.4,655.1z"/>
			<path class="st1" d="M-1016.6,308.6c5.8,6.9,4.7,12.1-1.7,17.9c-0.7,0.6-1.4,1.2-2.1,1.8l0,0v-25.9
				C-1019.7,304.3-1018.4,306.4-1016.6,308.6z"/>
			<linearGradient id="SVGID_6_" gradientUnits="userSpaceOnUse" x1="-1268.9158" y1="506.1309" x2="-1134.0651" y2="506.1309">
				<stop  offset="0" style="stop-color:#A067A0"/>
				<stop  offset="0.4814" style="stop-color:#D1B6D3"/>
				<stop  offset="0.8112" style="stop-color:#FFFFFF"/>
				<stop  offset="0.8693" style="stop-color:#FDFCFD"/>
				<stop  offset="0.909" style="stop-color:#F8F3F8"/>
				<stop  offset="0.9432" style="stop-color:#EEE4EF"/>
				<stop  offset="0.9741" style="stop-color:#E0CEE2"/>
				<stop  offset="1" style="stop-color:#D1B6D3"/>
			</linearGradient>
			<path class="st10" d="M-1134.1,356.3v152.2c-17.4,0.3-35,4.5-51.6,12.9c-50.2,25.4-74.8,81.3-62.7,133.7
				c-4.7,1.1-8.9,2.7-12.9,5.6V391.8c1.6-4.2,0.5-8.6-3.9-13.7c-5.8-6.9-4.7-12.1,1.7-17.9c5.4-5,11.4-6.8,18.3-7.9
				c11.2-1.9,29.3-0.3,37.7,9.7c10.1,12,31.9,13.9,45.4,11.7c8.4-1.4,15.5-3.6,22-9.6C-1137.1,361.4-1135.1,358.9-1134.1,356.3z"/>
			<path class="st1" d="M-1143.8,344.2c5.8,7,4.7,12.1-1.7,17.9c-0.7,0.6-1.4,1.2-2.1,1.8l0,0v-25.9
				C-1146.9,339.9-1145.6,342-1143.8,344.2z"/>
			<linearGradient id="SVGID_7_" gradientUnits="userSpaceOnUse" x1="-1396.129" y1="549.7182" x2="-1261.275" y2="549.7182">
				<stop  offset="0" style="stop-color:#A067A0"/>
				<stop  offset="0.4814" style="stop-color:#D1B6D3"/>
				<stop  offset="0.8112" style="stop-color:#FFFFFF"/>
				<stop  offset="0.8693" style="stop-color:#FDFCFD"/>
				<stop  offset="0.909" style="stop-color:#F8F3F8"/>
				<stop  offset="0.9432" style="stop-color:#EEE4EF"/>
				<stop  offset="0.9741" style="stop-color:#E0CEE2"/>
				<stop  offset="1" style="stop-color:#D1B6D3"/>
			</linearGradient>
			<path class="st11" d="M-1261.3,660.7v29.4c0,15.9-21.7,21.1-33.3,22.1c-12.3,1-31-1.6-40.1-12.4c-11.4-13.6-40.6-13-53.9-3.5
				V427.4c1.6-4.2,0.5-8.6-3.9-13.7c-5.8-6.9-4.7-12.1,1.7-17.9c5.4-5,11.4-6.8,18.3-7.9c11.2-1.8,29.3-0.3,37.7,9.7
				c10.1,12,31.9,13.9,45.4,11.7c8.4-1.4,15.5-3.6,22-9.5c2.9-2.7,4.9-5.2,5.9-7.8V660.7z"/>
			<path class="st1" d="M-1271,379.7c5.8,6.9,4.7,12.1-1.7,17.9c-0.7,0.6-1.4,1.2-2.1,1.8l0,0v-26
				C-1274.1,375.4-1272.9,377.5-1271,379.7z"/>
			<linearGradient id="SVGID_8_" gradientUnits="userSpaceOnUse" x1="-1461.8151" y1="587.6232" x2="-1388.485" y2="587.6232">
				<stop  offset="0" style="stop-color:#A067A0"/>
				<stop  offset="0.4814" style="stop-color:#D1B6D3"/>
				<stop  offset="0.8112" style="stop-color:#FFFFFF"/>
				<stop  offset="0.8693" style="stop-color:#FDFCFD"/>
				<stop  offset="0.909" style="stop-color:#F8F3F8"/>
				<stop  offset="0.9432" style="stop-color:#EEE4EF"/>
				<stop  offset="0.9741" style="stop-color:#E0CEE2"/>
				<stop  offset="1" style="stop-color:#D1B6D3"/>
			</linearGradient>
			<path class="st12" d="M-1388.5,696.3v29.4c0,15.9-21.7,21.1-33.3,22.1c-12.3,1-31.1-1.6-40.1-12.4V433.1
				c10.1,12,31.9,13.9,45.4,11.7c8.4-1.4,15.5-3.6,22-9.5c2.9-2.7,5-5.3,5.9-7.9V696.3z"/>
			<path class="st1" d="M-1398.2,415.3c5.8,6.9,4.7,12.1-1.7,17.9c-0.7,0.6-1.4,1.2-2.1,1.8l0,0v-26
				C-1401.4,411-1400.1,413.1-1398.2,415.3z"/>
		</g>
		<g>
		</g>
	</g>
	<g id="XMLID_2_">
		<g>
			<path class="st1" d="M1093.9,411.7l-4.7,9.8l4.7,8.2l-26.7,4.4v-18L1093.9,411.7z M1085.7,422.6c0.5-4.9-2.5-5.9-6.8-5.2
				c-4.1,0.7-6.4,2-6.8,6.4c-0.5,4.9,2.5,5.9,6.8,5.2C1083,428.4,1085.3,427,1085.7,422.6z"/>
			<path class="st3" d="M1078.9,417.4c4.3-0.7,7.3,0.3,6.8,5.2c-0.5,4.5-2.8,5.8-6.8,6.4c-4.3,0.7-7.3-0.3-6.8-5.2
				C1072.5,419.4,1074.8,418,1078.9,417.4z M1082.5,421.6c0-0.3-0.1-0.3-0.4-0.3c-0.2,0-0.3,0.1-0.4,0.4c0,0.3,0.1,0.3,0.4,0.3
				C1082.3,421.9,1082.4,421.9,1082.5,421.6z M1076.4,422.6c0-0.3-0.1-0.3-0.4-0.3c-0.2,0-0.3,0.1-0.4,0.4c0,0.3,0.1,0.3,0.4,0.3
				C1076.3,422.9,1076.4,422.9,1076.4,422.6z"/>
			<polygon class="st1" points="1082.1,483.9 1082.1,557.5 1067.2,560 1067.2,486.4 			"/>
			<polygon class="st2" points="1067.2,453.7 1082.1,483.9 1067.2,486.4 			"/>
			<path class="st3" d="M1067.2,576.7v3.9c-0.7,0.4-1.5,0.7-2.4,0.7c-0.9,0-1.8-0.3-2.4-0.7v-3.9v-16v-73.6v-43.4v-31.7
				c0.1,0.1,0.1,0.2,0.2,0.3c0.8,1,1.7,0.9,2.9,0.8c0.7-0.1,1.5-0.3,1.8-0.8v3.6v18v19.5v32.7V560V576.7z"/>
			<path class="st2" d="M1062.3,412.2c-0.5-1,0.7-1.4,1.8-1.6c1.1-0.2,2-0.3,2.9,0.8c0.1,0.1,0.2,0.2,0.2,0.4v0.8
				c-0.3,0.4-1.1,0.7-1.8,0.8c-1.1,0.2-2,0.3-2.9-0.8C1062.4,412.4,1062.3,412.3,1062.3,412.2z"/>
			<polygon class="st1" points="1062.3,487.2 1062.3,560.8 851.7,595.5 851.7,583.2 877.3,579 877.3,566.7 902.9,562.5 902.9,550.3 
				928.5,546 928.5,533.8 954.1,529.6 954.1,517.3 979.7,513.1 979.7,500.8 1005.3,496.6 			"/>
			<polygon class="st2" points="1062.3,443.8 1062.3,487.2 1005.3,496.6 979.7,500.8 953.5,447.8 979.1,443.5 1055.9,430.9 			"/>
			<polygon class="st3" points="979.7,500.8 979.7,513.1 953.5,460 953.5,447.8 			"/>
			<polygon class="st2" points="953.5,460 979.7,513.1 954.1,517.3 927.9,464.2 			"/>
			<polygon class="st3" points="954.1,517.3 954.1,529.6 927.9,476.5 927.9,464.2 			"/>
			<polygon class="st2" points="927.9,476.5 954.1,529.6 928.5,533.8 902.3,480.7 			"/>
			<polygon class="st3" points="928.5,533.8 928.5,546 902.3,493 902.3,480.7 			"/>
			<polygon class="st2" points="902.3,493 928.5,546 902.9,550.3 876.7,497.2 			"/>
			<polygon class="st3" points="902.9,550.3 902.9,562.5 876.7,509.5 876.7,497.2 			"/>
			<polygon class="st2" points="876.7,509.5 902.9,562.5 877.3,566.7 851.1,513.7 			"/>
			<polygon class="st3" points="877.3,566.7 877.3,579 851.1,525.9 851.1,513.7 			"/>
			<polygon class="st2" points="851.1,525.9 877.3,579 851.7,583.2 825.5,530.2 			"/>
			<polygon class="st3" points="851.7,583.2 851.7,595.5 825.5,542.4 825.5,530.2 			"/>
			<polygon class="st2" points="825.5,542.4 851.7,595.5 826.1,599.7 799.9,546.6 			"/>
			<path class="st6" d="M840.5,412.3c25.5,28.9,18,73.9-15.4,93c-18.9,10.8-42,10.7-60.8-0.3c-7.9-4.6-14.1-10.3-19.3-17.9v-69.3
				c1.3-1.8,2.6-3.6,4.1-5.2l0.1-0.2l9-11l24.1-29.6l5.9-7.2l6.8-8.3L840.5,412.3z"/>
			<polygon class="st3" points="799.9,546.6 826.1,599.7 820.5,600.6 799.9,558.9 			"/>
			<polygon class="st2" points="799.9,558.9 820.5,600.6 797.5,604.4 797.5,610.1 774.3,563.1 			"/>
			<polygon class="st1" points="799.9,546.6 799.9,558.9 774.3,563.1 774.3,575.4 748.7,579.6 748.7,591.9 745,592.5 745,555.7 			
				"/>
			<polygon class="st1" points="797.5,628.9 797.5,714.8 745,723.4 745,662.1 749.3,661.4 749.3,649.1 774.9,644.9 774.9,632.7 			
				"/>
			<polygon class="st2" points="797.5,622.3 797.5,628.9 774.9,632.7 748.7,579.6 774.3,575.4 			"/>
			<polygon class="st3" points="797.5,610.1 797.5,622.3 774.3,575.4 774.3,563.1 			"/>
			<polygon class="st1" points="788.2,218.1 788.2,364.6 782.3,371.8 782.3,219.8 			"/>
			<path class="st2" d="M728.4,248.4c-1.5,7.1-9.4,12.8-17.5,15.9c-12.7,4.8-24.1,5.1-37.2,1.6l-2.6-5.2c11.6,4.8,21.7,4.9,33.6,1.3
				c3.5-1.1,7.1-2.7,10.1-4.8c6.8-4.7,10.6-11.6,3.8-19.7c-1.9-2.2-3.1-4.3-3.9-6.3c-2-5.4,0.3-10.1,5.9-15.3c6.5-6,13.7-8.2,22-9.6
				c13.5-2.2,35.3-0.3,45.4,11.7l-5.9,1.6c-8.4-10-26.5-11.6-37.7-9.7c-7,1.1-12.9,3-18.3,7.9c-6.4,5.9-7.5,11-1.7,17.9
				C728.3,240.3,729.3,244.6,728.4,248.4z"/>
			<path class="st1" d="M782.3,219.8v152.1l-24.1,29.6c-5.8-0.5-11.2-0.2-16.9,1.2l-12.9-26.1V248.4c0.8-3.8-0.1-8-3.9-12.5
				c-5.8-6.9-4.7-12.1,1.7-17.9c5.4-5,11.4-6.8,18.3-7.9C755.8,208.2,773.9,209.8,782.3,219.8z"/>
			<polygon class="st3" points="774.9,632.7 774.9,644.9 748.7,591.9 748.7,579.6 			"/>
			<polygon class="st2" points="748.7,591.9 774.9,644.9 749.3,649.1 745,640.5 745,592.5 			"/>
			<polygon class="st3" points="749.3,649.1 749.3,661.4 745,652.7 745,640.5 			"/>
			<polygon class="st2" points="745,652.7 749.3,661.4 745,662.1 			"/>
			<polygon class="st1" points="745,723.4 745,809.5 722.1,813.3 722.1,413.8 745,410 745,417.8 745,487.1 745,555.7 745,592.5 
				745,640.5 745,652.7 745,662.1 			"/>
			<polygon class="st2" points="741.3,402.6 745,410 722.1,413.8 524.1,13.3 547,9.5 671.2,260.7 673.7,265.9 728.4,376.5 			"/>
			<path class="st1" d="M728.4,248.4v128.1l-54.7-110.6c13.1,3.5,24.5,3.2,37.2-1.6C719.1,261.2,726.9,255.5,728.4,248.4z"/>
			<path class="st3" d="M722.1,413.8v399.5l-39.4-79.6v-36.8v-33.5v-12.3v-23.9v-78.4l-8.2-16.6l-18-36.5v148l-10.3,1.7v12.3
				l-0.9,0.2l-21.4-43.4V504.2l-22.7-45.9V285.2c1.6-4.2,0.5-8.5-3.9-13.7c-1.9-2.3-3.1-4.5-3.2-7.6l-4.1-8.2
				c-2.7,4.1-3.4,7.5-2.4,10.9v26.2l0,0c-4.9,3.7-10.1,5.2-16.2,6.2c-11.2,1.8-29.3,0.3-37.7-9.7c-2.6-3-5.9-5.5-9.6-7.3V13.3
				L722.1,413.8z"/>
			<path class="st1" d="M718.7,237.5c6.8,8.1,3,15.1-3.8,19.7l0,0v-25.9C715.6,233.2,716.8,235.3,718.7,237.5z"/>
			<polygon class="st1" points="682.8,696.9 682.8,733.7 621.3,743.8 621.3,731.5 646.9,727.3 646.9,715.1 672.5,710.8 672.5,698.6 
							"/>
			<polygon class="st2" points="682.8,663.4 682.8,696.9 672.5,698.6 646.2,645.5 656.5,643.8 671.8,641.3 			"/>
			<polygon class="st3" points="682.8,651.1 682.8,663.4 671.8,641.3 671.8,629 			"/>
			<polygon class="st2" points="682.8,627.2 682.8,651.1 671.8,629 674.6,628.6 			"/>
			<polygon class="st6" points="682.8,548.9 682.8,627.2 674.6,628.6 674.6,532.3 			"/>
			<polygon class="st1" points="656.5,495.8 674.6,532.3 674.6,628.6 671.8,629 671.8,641.3 656.5,643.8 			"/>
			<polygon class="st3" points="672.5,698.6 672.5,710.8 646.2,657.8 646.2,645.5 			"/>
			<polygon class="st2" points="646.2,657.8 672.5,710.8 646.9,715.1 620.6,662 645.3,657.9 			"/>
			<polygon class="st3" points="646.9,715.1 646.9,727.3 620.6,674.3 620.6,662 			"/>
			<polygon class="st2" points="620.6,674.3 646.9,727.3 621.3,731.5 595,678.5 			"/>
			<polygon class="st6" points="623.9,504.2 623.9,614.5 593.3,596.9 593.3,486.6 			"/>
			<path class="st2" d="M601.2,458.3l22.7,45.9l-30.5-17.6v0c4.8-3.6,7.9-7,7.9-13.5v0V458.3z"/>
			<polygon class="st3" points="621.3,731.5 621.3,743.8 595,690.7 595,678.5 			"/>
			<path class="st2" d="M92.4,427.4c-1,2.6-3,5.2-5.9,7.9c-6.5,6-13.7,8.2-22,9.5c-13.5,2.2-35.3,0.3-45.3-11.7l5.9-1.6
				c8.4,10,26.5,11.6,37.7,9.7c6.1-1,11.3-2.5,16.2-6.2c0.7-0.5,1.4-1.1,2.1-1.8c6.4-5.9,7.6-11,1.7-17.9c-1.9-2.2-3.2-4.3-3.9-6.3
				c-2-5.4,0.3-10.1,5.9-15.3c6.5-6,13.7-8.2,22-9.6c13.5-2.2,35.3-0.3,45.4,11.7c8.4,10,26.5,11.6,37.7,9.7
				c6.1-1,11.4-2.5,16.2-6.2c0.7-0.5,1.4-1.1,2.1-1.8c6.4-5.9,7.5-11,1.7-17.9c-1.9-2.2-3.1-4.3-3.9-6.3v-0.2l-0.1-0.1
				c-1.8-5.3,0.4-10,6-15.1c6.5-6,13.7-8.2,22-9.5c13.5-2.2,35.3-0.3,45.4,11.7c8.4,10,26.5,11.6,37.7,9.7c6.1-1,11.4-2.5,16.2-6.2
				c0.7-0.5,1.4-1.1,2.1-1.8c6.4-5.9,7.5-11,1.7-17.9c-1.9-2.2-3.1-4.3-3.9-6.3v-1.6l-0.5-0.3c-0.9-4.7,1.4-8.9,6.4-13.5
				c6.5-6,13.7-8.2,22-9.6c13.5-2.2,35.3-0.3,45.4,11.7c8.4,10,26.5,11.6,37.7,9.7c6.1-1,11.4-2.5,16.2-6.2c0.7-0.5,1.4-1.1,2.1-1.8
				c6.4-5.9,7.5-11,1.7-17.9c-1.9-2.2-3.1-4.3-3.9-6.3c-2-5.4,0.3-10.1,5.9-15.3c6.5-6,13.7-8.2,22-9.5c10.1-1.7,24.7-1,35.7,4.4
				c3.7,1.8,7.1,4.2,9.6,7.3c8.4,10,26.5,11.6,37.7,9.7c6.1-1,11.3-2.5,16.2-6.2c0.7-0.5,1.4-1.1,2.1-1.8c6.4-5.9,7.6-11,1.7-17.9
				c-1.9-2.3-3.2-4.4-3.9-6.6c-1-3.4-0.2-6.8,2.4-10.9l4.1,8.2c0.1,3.1,1.3,5.3,3.2,7.6c4.3,5.2,5.5,9.5,3.9,13.7
				c-1,2.6-3,5.2-5.9,7.9c-6.5,6-13.7,8.2-22,9.6c-13.5,2.2-35.3,0.3-45.3-11.7c-8.4-10-26.5-11.6-37.7-9.7c-7,1.1-12.9,3-18.3,7.9
				c-6.4,5.9-7.5,11-1.7,17.9c4.3,5.2,5.5,9.5,3.8,13.7c-1,2.6-3,5.1-5.9,7.8c-6.5,6-13.7,8.2-22,9.5c-13.5,2.2-35.3,0.3-45.4-11.7
				c-8.4-10-26.5-11.6-37.7-9.7c-6.9,1.1-12.9,3-18.3,7.9c-6.4,5.9-7.5,11-1.7,17.9c4.3,5.2,5.5,9.5,3.9,13.7c-1,2.6-3,5.1-5.9,7.8
				c-6.5,6-13.7,8.2-22,9.6c-13.5,2.2-35.3,0.3-45.4-11.7c-8.4-10-26.5-11.6-37.7-9.7c-7,1.1-12.9,3-18.3,7.9
				c-6.4,5.9-7.6,11-1.7,17.9c4.3,5.2,5.5,9.5,3.9,13.7c-1,2.6-3,5.2-5.9,7.8c-6.5,6-13.7,8.2-22,9.5c-13.5,2.2-35.3,0.3-45.4-11.7
				c-8.4-10-26.5-11.6-37.7-9.7c-6.9,1.2-12.9,3-18.3,7.9c-6.4,5.9-7.5,11-1.7,17.9C92.8,418.8,94,423.1,92.4,427.4z"/>
			<path class="st1" d="M601.2,458.3V473v0c0,6.5-3.1,9.9-7.9,13.5v0v110.3c-15.8,12-51.7,12.6-65.5-3.8
				c-11.4-13.6-40.6-13-53.9-3.5V320.7c1.6-4.2,0.5-8.6-3.8-13.7c-5.8-6.9-4.7-12.1,1.7-17.9c5.4-5,11.4-6.8,18.3-7.9
				c11.2-1.9,29.3-0.3,37.7,9.7c10.1,12,31.9,13.9,45.3,11.7c8.4-1.4,15.5-3.6,22-9.6c2.9-2.7,5-5.3,5.9-7.9V458.3z"/>
			<path class="st1" d="M591.5,273.1c5.8,7,4.7,12.1-1.7,17.9c-0.7,0.6-1.4,1.2-2.1,1.8l0,0v-26.2
				C588.3,268.7,589.6,270.8,591.5,273.1z"/>
			<path class="st1" d="M474,589.6V619c0,4.8-1.9,7.9-5.1,11.1c0.3-18.8-3.8-37.8-12.9-55.7c-11.6-22.9-29.5-40.5-50.6-51.7
				c0,0-0.1,0-0.1,0c-18.7-10.1-37-14.6-58-14c0,0,0,0,0,0c-0.2,0-0.4,0-0.6,0V356.3c1.6-4.2,0.5-8.6-3.9-13.7
				c-5.8-6.9-4.7-12.1,1.7-17.9c5.4-5,11.4-6.8,18.3-7.9c11.2-1.9,29.3-0.3,37.7,9.7c10.1,12,31.9,13.9,45.4,11.7
				c8.4-1.4,15.5-3.6,22-9.5c2.9-2.7,4.9-5.2,5.9-7.8V589.6z"/>
			<path class="st3" d="M468.9,630c-0.7,43.1-24.6,84.3-65.8,105.1c-59,29.8-131,6.1-160.8-52.9c-4.4-8.8-7.7-17.9-9.8-27.1
				c-12.1-52.5,12.5-108.4,62.7-133.7c16.6-8.4,34.2-12.5,51.6-12.9v0c0.2,0,0.4,0,0.6,0c0,0,0,0,0,0c20.3-0.3,40.2,4.6,58,14
				c0,0,0.1,0,0.1,0c21.1,11.2,39,28.8,50.6,51.7C465.1,592.2,469.2,611.3,468.9,630z"/>
			<path class="st1" d="M464.3,308.6c5.8,6.9,4.7,12.1-1.7,17.9c-0.7,0.6-1.4,1.2-2.1,1.8l0,0v-25.9
				C461.1,304.3,462.4,306.4,464.3,308.6z"/>
			<path class="st1" d="M346.8,356.3v152.2c-17.4,0.3-35,4.5-51.6,12.9c-50.2,25.4-74.8,81.3-62.7,133.7c-4.7,1.1-8.9,2.7-12.9,5.6
				V391.8c1.6-4.2,0.5-8.6-3.9-13.7c-5.8-6.9-4.7-12.1,1.7-17.9c5.4-5,11.4-6.8,18.3-7.9c11.2-1.9,29.3-0.3,37.7,9.7
				c10.1,12,31.9,13.9,45.4,11.7c8.4-1.4,15.5-3.6,22-9.6C343.8,361.4,345.8,358.9,346.8,356.3z"/>
			<path class="st1" d="M337.1,344.2c5.8,7,4.7,12.1-1.7,17.9c-0.7,0.6-1.4,1.2-2.1,1.8l0,0v-25.9
				C333.9,339.9,335.2,342,337.1,344.2z"/>
			<path class="st1" d="M219.6,660.7v29.4c0,15.9-21.7,21.1-33.3,22.1c-12.3,1-31-1.6-40.1-12.4c-11.4-13.6-40.6-13-53.9-3.5V427.4
				c1.6-4.2,0.5-8.6-3.9-13.7c-5.8-6.9-4.7-12.1,1.7-17.9c5.4-5,11.4-6.8,18.3-7.9c11.2-1.8,29.3-0.3,37.7,9.7
				c10.1,12,31.9,13.9,45.4,11.7c8.4-1.4,15.5-3.6,22-9.5c2.9-2.7,4.9-5.2,5.9-7.8V660.7z"/>
			<path class="st1" d="M209.9,379.7c5.8,6.9,4.7,12.1-1.7,17.9c-0.7,0.6-1.4,1.2-2.1,1.8l0,0v-26
				C206.7,375.4,208,377.5,209.9,379.7z"/>
			<path class="st1" d="M92.4,696.3v29.4c0,15.9-21.7,21.1-33.3,22.1c-12.3,1-31.1-1.6-40.1-12.4V433.1c10.1,12,31.9,13.9,45.3,11.7
				c8.4-1.4,15.5-3.6,22-9.5c2.9-2.7,5-5.3,5.9-7.9V696.3z"/>
			<path class="st1" d="M82.6,415.3c5.8,6.9,4.7,12.1-1.7,17.9c-0.7,0.6-1.4,1.2-2.1,1.8l0,0v-26C79.5,411,80.8,413.1,82.6,415.3z"
				/>
		</g>
		<g>
			<line class="st13" x1="788.2" y1="364.6" x2="788.2" y2="218.1"/>
			<polyline class="st13" points="728.4,245.6 728.4,248.4 728.4,376.5 			"/>
			<polyline class="st13" points="474,316.7 474,320.7 474,589.6 474,619 			"/>
			<polyline class="st13" points="346.8,352.3 346.8,356.3 346.8,508.5 346.8,508.6 346.8,508.6 			"/>
			<polyline class="st13" points="92.4,423.4 92.4,427.4 92.4,696.3 92.4,725.6 			"/>
			<polyline class="st13" points="219.6,387.8 219.6,391.8 219.6,660.7 219.6,690.1 			"/>
		</g>
	</g>
</g>
</svg>
