<?xml version="1.0" encoding="utf-8"?>
<!-- Generator: Adobe Illustrator 21.1.0, SVG Export Plug-In . SVG Version: 6.00 Build 0)  -->
<svg version="1.1" id="Layer_1" xmlns="http://www.w3.org/2000/svg" xmlns:xlink="http://www.w3.org/1999/xlink" x="0px" y="0px"
	 viewBox="0 0 432 432" style="enable-background:new 0 0 432 432;" xml:space="preserve">
<style type="text/css">
	.st0{stroke:#000000;stroke-miterlimit:10;}
</style>
<polygon class="st0" points="37.8,55.2 394.1,55.2 394.1,106.2 301.6,95.9 280,93.5 234.9,93.5 234.9,170.8 304.2,192.2 
	403.3,216.4 388.6,263.7 291,226.6 234.9,209.2 234.9,337.5 280,337.5 394.1,325.5 394.1,376.8 37.8,376.8 37.8,325.5 151.9,337.5 
	197,337.5 197,209.2 141,226.6 43.3,263.7 28.7,217 129,191.8 197,170.8 197,93.5 151.9,93.5 37.8,106.2 "/>
</svg>
